<?xml version="1.0" encoding="UTF-8" standalone="no"?>
<svg
   xmlns:dc="http://purl.org/dc/elements/1.1/"
   xmlns:cc="http://creativecommons.org/ns#"
   xmlns:rdf="http://www.w3.org/1999/02/22-rdf-syntax-ns#"
   xmlns:svg="http://www.w3.org/2000/svg"
   xmlns="http://www.w3.org/2000/svg"
   xmlns:sodipodi="http://sodipodi.sourceforge.net/DTD/sodipodi-0.dtd"
   xmlns:inkscape="http://www.inkscape.org/namespaces/inkscape"
   inkscape:version="1.0 (4035a4fb49, 2020-05-01)"
   sodipodi:docname="cyclofix-logo.svg"
   id="svg39"
   viewBox="0 0 17.197916 17.197916"
   version="1.1"
   height="65"
   width="65">
  <metadata
     id="metadata43">
    <rdf:RDF>
      <cc:Work
         rdf:about="">
        <dc:format>image/svg+xml</dc:format>
        <dc:type
           rdf:resource="http://purl.org/dc/dcmitype/StillImage" />
        <dc:title></dc:title>
      </cc:Work>
    </rdf:RDF>
  </metadata>
  <sodipodi:namedview
     inkscape:current-layer="svg39"
     inkscape:window-maximized="1"
     inkscape:window-y="0"
     inkscape:window-x="44"
     inkscape:cy="223.01103"
     inkscape:cx="136.5052"
     inkscape:zoom="0.63695988"
     units="px"
     fit-margin-bottom="0"
     fit-margin-right="0"
     fit-margin-left="0"
     fit-margin-top="0"
     showgrid="false"
     id="namedview41"
     inkscape:window-height="1051"
     inkscape:window-width="1876"
     inkscape:pageshadow="2"
     inkscape:pageopacity="0"
     guidetolerance="10"
     gridtolerance="10"
     objecttolerance="10"
     borderopacity="1"
     bordercolor="#666666"
     pagecolor="#ffffff" />
  <defs
     id="defs17">
    <filter
       filterUnits="userSpaceOnUse"
       color-interpolation-filters="sRGB"
       height="58"
       width="93.235001"
       y="59"
       x="87.644997"
       id="filter1_d">
      <feFlood
         id="feFlood2"
         result="BackgroundImageFix"
         flood-opacity="0" />
      <feColorMatrix
         id="feColorMatrix4"
         values="0 0 0 0 0 0 0 0 0 0 0 0 0 0 0 0 0 0 127 0"
         in="SourceAlpha" />
      <feOffset
         id="feOffset6"
         dy="4" />
      <feGaussianBlur
         id="feGaussianBlur8"
         stdDeviation="2" />
      <feColorMatrix
         id="feColorMatrix10"
         values="0 0 0 0 0 0 0 0 0 0 0 0 0 0 0 0 0 0 0.25 0" />
      <feBlend
         mode="normal"
         id="feBlend12"
         result="effect1_dropShadow"
         in2="BackgroundImageFix" />
      <feBlend
         mode="normal"
         id="feBlend14"
         result="shape"
         in2="effect1_dropShadow"
         in="SourceGraphic" />
    </filter>
  </defs>
  <g
     transform="matrix(0.39780344,0,0,0.39780344,3.4414363,0.66145847)"
     id="g55">
    <circle
       cx="12.965"
       cy="12.965"
       r="12.965"
       fill="#e9c46a"
       stroke-width="0.26458"
       id="circle19" />
    <path
       d="m 14.148001,39.175001 c -0.48763,0.97552 -1.8793,0.97552 -2.3667,0 l -11.15000042,-22.309 c -0.4396,-0.87947 0.20002,-1.9143 1.18330002,-1.9143 H 24.114601 c 0.98319,0 1.623,1.0348 1.1832,1.9143 z"
       fill="#e9c46a"
       stroke-width="0.26458"
       id="path21" />
    <g
       transform="matrix(0.26458,0,0,0.26458,-22.753999,-11.901999)"
       filter="url(#filter1_d)"
       id="g37">
      <g
         fill="none"
         stroke="#ffffff"
         id="g31">
        <path
           d="m 130.8,94.661 h -22.216 l 12.118,-26.256 h 30.295 l -3.366,-7.4055 h 9.425 m -6.059,7.4055 1.347,3.3661 2.692,5.3858 7.406,17.504 m -11.445,-26.256 -6.396,10.098 -3.837,6.059 m -2.558,4.0394 2.558,-4.0394 m -15.349,-8.7519 6.732,14.811 -13.465,-29.622 4.04,8.0787 m 13.464,22.89 4.578,-7.4055"
           stroke-width="4"
           id="path23" />
        <circle
           cx="134.06"
           cy="93.515999"
           r="3.7126"
           stroke-width="2"
           id="circle25" />
        <path
           d="m 158.94,101.94 -0.057,-0.004 h -0.058 c -1.479,0 -3.004,0.075 -4.38,0.143 -0.811,0.039 -1.569,0.077 -2.236,0.095 -1.966,0.052 -3.404,-0.042 -4.481,-0.426 -0.945,-0.337 -1.662,-0.913 -2.186,-2.1115 -0.575,-1.3143 -0.935,-3.4347 -0.817,-6.8521 0.291,-8.4377 6.811,-15.144 15.076,-15.144 8.326,0 15.076,6.7495 15.076,15.075 0,2.8364 -0.069,4.7891 -0.374,6.201 -0.286,1.3185 -0.724,1.9125 -1.328,2.2995 -0.735,0.471 -2.019,0.834 -4.429,0.959 -2.37,0.124 -5.531,0.009 -9.806,-0.235 z"
           stroke-width="4"
           id="path27" />
        <circle
           cx="108.48"
           cy="92.168999"
           r="14.831"
           stroke-width="4"
           id="circle29" />
      </g>
      <path
         d="m 170.17,78.203 c -0.122,-1.0395 -0.609,-2.079 -1.097,-2.5031 m 2.439,2.9272 c 0.366,-0.5516 0.854,-2.0152 0.854,-2.9909 m 0.243,4.0304 c 0.367,-0.5516 2.318,-1.4636 2.806,-1.4636"
         stroke="#ffffff"
         stroke-linecap="round"
         stroke-linejoin="round"
         id="path33" />
      <circle
         cx="170.53999"
         cy="80.027"
         r="0.48787001"
         fill-opacity="0.49"
         id="circle35" />
    </g>
  </g>
</svg>
